Coordinates
version=1
nRows=12
nColumns=28
inDegrees=yes

Units are S.I. units (second, meters, Newtons, ...)
Angles are in degrees.

endheader
time	pelvis_tilt	pelvis_list	pelvis_rotation	pelvis_tx	pelvis_ty	pelvis_tz	hip_flexion_r	hip_adduction_r	hip_rotation_r	knee_angle_r	ankle_angle_r	subtalar_angle_r	mtp_angle_r	hip_flexion_l	hip_adduction_l	hip_rotation_l	knee_angle_l	socket_flexion	socket_adduction	socket_rotation	socket_tx	socket_ty	socket_tz	foot_flex	lumbar_extension	lumbar_bending	lumbar_rotation
      0.32500000	      6.35240328	     -2.15681169	     -7.63788156	     -0.42637415	      1.02032541	      0.28827698	     11.40090772	      4.14143077	      5.93343177	    -63.41986205	      4.33051174	    -13.70176832	     27.65897826	     -5.21137017	      0.16352303	    -12.75972863	     -9.24779937	      0.00000000	      0.00000000	      0.00000000	      0.00000000	      0.00000000	      0.00000000	      2.47502491	    -15.69547727	     -2.60957224	      6.88804585
      0.32916667	      6.38972492	     -2.16059066	     -7.56965935	     -0.42181470	      1.02060860	      0.28798337	     11.96437579	      4.19872137	      5.92739825	    -63.03793245	      4.40030752	    -13.68800197	     27.66790610	     -5.54990714	      0.21699359	    -12.73655363	     -9.20841842	      0.00000000	      0.00000000	      0.00000000	      0.00000000	      0.00000000	      0.00000000	      2.54400287	    -15.81561669	     -2.61336891	      6.86657664
      0.33333333	      6.37791939	     -2.42290132	     -7.35293917	     -0.41666782	      1.02104907	      0.28743398	     12.36447981	      4.52567609	      5.80000635	    -62.38495795	      5.03431097	    -13.31252563	     27.80664946	     -5.95465140	     -0.01502986	    -12.51317985	     -9.05030942	      0.00000000	      0.00000000	      0.00000000	      0.00000000	      0.00000000	      0.00000000	      2.70331519	    -15.81530609	     -2.20794896	      6.56688662
      0.33750000	      6.38891257	     -2.53576134	     -7.22406797	     -0.41179480	      1.02136876	      0.28701981	     12.83490730	      4.68167978	      5.72947838	    -61.82877901	      5.34271501	    -13.17554598	     27.84751145	     -6.33118592	     -0.07874867	    -12.41090941	     -8.92685858	      0.00000000	      0.00000000	      0.00000000	      0.00000000	      0.00000000	      0.00000000	      2.77095389	    -15.85612164	     -2.01994550	      6.42481839
      0.34166667	      6.39732229	     -2.68885979	     -7.06237777	     -0.40695484	      1.02168265	      0.28664338	     13.28212221	      4.88872739	      5.63282541	    -61.21141821	      5.67482939	    -13.01297459	     27.86787109	     -6.69687173	     -0.20137822	    -12.27764040	     -8.83199670	      0.00000000	      0.00000000	      0.00000000	      0.00000000	      0.00000000	      0.00000000	      2.88414882	    -15.91903293	     -1.80177618	      6.24274580
      0.34583333	      6.41859557	     -2.68292753	     -7.01117980	     -0.40241773	      1.02184221	      0.28641354	     13.82410307	      4.92482083	      5.62165321	    -60.73199368	      5.73943027	    -13.01232717	     27.86527488	     -7.01871358	     -0.14352415	    -12.25824786	     -8.78715730	      0.00000000	      0.00000000	      0.00000000	      0.00000000	      0.00000000	      0.00000000	      2.95463735	    -16.03864048	     -1.81553427	      6.22216516
      0.35000000	      6.43338923	     -2.95026519	     -6.72499115	     -0.39727615	      1.02228714	      0.28582976	     14.11648184	      5.21455124	      5.40145255	    -59.87545985	      6.15271804	    -12.80519336	     27.75397806	     -7.43875935	     -0.39846002	    -11.99495043	     -8.63314783	      0.00000000	      0.00000000	      0.00000000	      0.00000000	      0.00000000	      0.00000000	      3.08966945	    -16.05517167	     -1.39668672	      5.84489695
      0.35416667	      6.43236317	     -2.97041342	     -6.66394468	     -0.39245903	      1.02241463	      0.28562475	     14.58785089	      5.28364986	      5.39568131	    -59.24564063	      6.29573408	    -12.82035785	     27.73750018	     -7.79817082	     -0.36838820	    -11.94775331	     -8.51150372	      0.00000000	      0.00000000	      0.00000000	      0.00000000	      0.00000000	      0.00000000	      3.19578184	    -16.06645347	     -1.36438802	      5.81405326
      0.35833333	      6.38672247	     -3.21331159	     -6.47977102	     -0.38761600	      1.02264689	      0.28524274	     14.99835388	      5.59039990	      5.29142642	    -58.45817367	      6.61446395	    -12.83975095	     27.64392521	     -8.11252645	     -0.60928419	    -11.81423445	     -8.40282810	      0.00000000	      0.00000000	      0.00000000	      0.00000000	      0.00000000	      0.00000000	      3.29231852	    -16.08623055	     -1.02956342	      5.68465838
      0.36250000	      6.38032009	     -3.34524976	     -6.32731828	     -0.38278163	      1.02286178	      0.28489100	     15.38437158	      5.75049516	      5.18216287	    -57.65587093	      6.77816312	    -12.89259476	     27.46983658	     -8.45916921	     -0.71526585	    -11.67683353	     -8.30549636	      0.00000000	      0.00000000	      0.00000000	      0.00000000	      0.00000000	      0.00000000	      3.39641890	    -16.11107611	     -0.81449691	      5.52967435
      0.36666667	      6.37793820	     -3.32677541	     -6.27716490	     -0.37805547	      1.02289286	      0.28476350	     15.83468051	      5.76373403	      5.16091005	    -56.96106110	      6.85769180	    -12.92308505	     27.42850793	     -8.80062045	     -0.65126110	    -11.64547669	     -8.19531357	      0.00000000	      0.00000000	      0.00000000	      0.00000000	      0.00000000	      0.00000000	      3.50930157	    -16.13253495	     -0.84380000	      5.49665990
      0.37083333	      6.34860227	     -3.58612033	     -6.05388840	     -0.37313966	      1.02310090	      0.28432302	     16.16037517	      6.05770225	      4.99169035	    -56.03367896	      7.03002132	    -13.11797395	     27.07580783	     -9.14495563	     -0.91602125	    -11.42893301	     -8.06836946	      0.00000000	      0.00000000	      0.00000000	      0.00000000	      0.00000000	      0.00000000	      3.63838966	    -16.14813606	     -0.46523472	      5.28188763
